<?xml version="1.0" encoding="UTF-8" standalone="no"?>
<svg
   width="958.31445"
   height="232.74551"
   viewBox="0 0 958.31445 232.74551"
   version="1.1"
   id="svg18"
   xmlns:xlink="http://www.w3.org/1999/xlink"
   xmlns="http://www.w3.org/2000/svg"
   xmlns:svg="http://www.w3.org/2000/svg">
  <defs
     id="defs2">
    <linearGradient
       id="gradient_0"
       gradientUnits="userSpaceOnUse"
       x1="34.21236"
       y1="398.45474"
       x2="374.71027"
       y2="626.43982"
       gradientTransform="translate(-30.154608,-395.91673)">
      <stop
         offset="0"
         stop-color="#8C39FF"
         id="stop1"
         style="stop-color:#d136ff;stop-opacity:1;" />
      <stop
         offset="0.5"
         stop-color="#8C39FF"
         id="stop22"
         style="stop-color:#3f6aff;stop-opacity:1;" />
      <stop
         offset="1"
         stop-color="#039CFE"
         id="stop2"
         style="stop-color:#00ffff;stop-opacity:1;" />
    </linearGradient>
    <linearGradient
       xlink:href="#gradient_3"
       id="linearGradient23"
       gradientUnits="userSpaceOnUse"
       x1="412.91354"
       y1="506.64795"
       x2="988.46906"
       y2="506.64795"
       gradientTransform="translate(-30.154608,-395.91673)" />
    <linearGradient
       xlink:href="#gradient_3"
       id="linearGradient24"
       gradientUnits="userSpaceOnUse"
       x1="412.91354"
       y1="506.64795"
       x2="988.46906"
       y2="506.64795"
       gradientTransform="translate(-30.154608,-395.91673)" />
    <linearGradient
       xlink:href="#gradient_3"
       id="linearGradient25"
       gradientUnits="userSpaceOnUse"
       x1="412.91354"
       y1="506.64795"
       x2="988.46906"
       y2="506.64795"
       gradientTransform="translate(-30.154608,-395.91673)" />
    <linearGradient
       xlink:href="#gradient_3"
       id="linearGradient26"
       gradientUnits="userSpaceOnUse"
       x1="412.91354"
       y1="506.64795"
       x2="988.46906"
       y2="506.64795"
       gradientTransform="translate(-30.154608,-395.91673)" />
    <linearGradient
       xlink:href="#gradient_3"
       id="linearGradient27"
       gradientUnits="userSpaceOnUse"
       x1="412.91354"
       y1="506.64795"
       x2="988.46906"
       y2="506.64795"
       gradientTransform="translate(-30.154608,-395.91673)" />
    <linearGradient
       xlink:href="#gradient_3"
       id="linearGradient28"
       gradientUnits="userSpaceOnUse"
       x1="412.91354"
       y1="506.64795"
       x2="988.46906"
       y2="506.64795"
       gradientTransform="translate(-30.154608,-395.91673)" />
    <linearGradient
       xlink:href="#gradient_3"
       id="linearGradient29"
       gradientUnits="userSpaceOnUse"
       x1="412.91354"
       y1="506.64795"
       x2="988.46906"
       y2="506.64795"
       gradientTransform="translate(-30.154608,-395.91673)" />
    <linearGradient
       xlink:href="#gradient_3"
       id="linearGradient30"
       gradientUnits="userSpaceOnUse"
       x1="412.91354"
       y1="506.64795"
       x2="988.46906"
       y2="506.64795"
       gradientTransform="translate(-30.154608,-395.91673)" />
  </defs>
  <defs
     id="defs6" />
  <defs
     id="defs9" />
  <defs
     id="defs11">
    <linearGradient
       id="gradient_3"
       gradientUnits="userSpaceOnUse"
       x1="322.91019"
       y1="549.10895"
       x2="243.34608"
       y2="514.05896">
      <stop
         offset="0"
         stop-color="#00C4FD"
         id="stop10"
         style="stop-color:#2050ff;stop-opacity:1;" />
      <stop
         offset="0.72888887"
         stop-color="#0097FF"
         id="stop11"
         style="stop-color:#00ffff;stop-opacity:1;" />
    </linearGradient>
  </defs>
  <path
     id="path2"
     style="fill:url(#gradient_0)"
     d="m 16.163751,0.06569581 c -4.809675,0.21025 -9.4141779,0.99080999 -12.0800779,3.25780999 -6.3038,5.361 -3.25114397,23.4006292 -3.90234297,31.0156292 -0.578701,6.768 0.151381,15.46156 5.11328097,20.10156 5.8149999,6.058 22.7042249,5.01672 30.5781249,5.01172 l 35.474606,-0.26367 c 4.647,-0.043 18.65736,-1.01939 23.06836,1.47461 1.819,1.028 1.54049,10.34998 1.52149,12.33398 0.234,11.468 -0.55285,24.44075 0.0351,35.718745 -0.56899,20.04673 0.50098,40.29369 0.29102,60.35742 -0.021,2.08398 -0.13065,5.27047 0.15234,7.23047 -0.321,14.458 -0.37534,29.40386 0.22266,43.75586 0.235,5.66 5.472948,11.82488 11.001948,12.17188 16.972,1.066 35.25324,0.1152 52.24024,0.2832 l 53.00976,0.10156 c 14.988,0.017 34.84785,0.79275 48.83985,-2.40625 26.47,-6.053 51.85632,-22.61604 66.23632,-45.87304 15.2,-23.262 17.28607,-46.24908 16.91407,-73.08008 -0.345,-24.871995 -2.91035,-46.374665 -17.77735,-67.513665 -5.092,-7.241 -13.66739,-17.40469 -21.27539,-22.17969 -29.009,-25.9149992 -66.819,-21.01396919 -102.625,-21.04296919 -26.322,-0.022 -53.9592,-0.86233 -80.1582,0.0137 -6.453,-0.528 -16.486,-0.23965 -23.124998,-0.22265 l -38.060548,-0.0254 -32.384766,-0.0566 c -3.4863,-0.014 -8.500872,-0.37431 -13.310547,-0.16406 z M 127.37469,14.671165 c 4.71737,0.0235 9.27904,0.27003 11.43554,1.14453 2.915,3.505 2.05611,16.8123 2.03711,21.9043 l -0.0391,36.17187 c 0,4.814 -0.23903,14.8223 0.29297,19.1543 -10.94287,0.398 -15.16177,1.77905 -14.58789,14.056635 0.153,3.25196 0.23614,6.83894 0.36914,10.12891 -0.163,4.303 -0.95663,12.33072 0.60937,16.13672 2.182,5.299 8.74258,4.83159 13.64258,4.93359 0.652,23.792 -0.82347,48.67994 -0.60547,72.58594 0.016,1.729 -0.49104,4.68187 -1.49804,6.04687 -4.757,3.241 -19.84814,1.46922 -25.86914,1.44922 -0.281,-0.001 -2.04546,-0.57962 -2.06446,-1.01562 -1.673,-16.193 -0.40986,-46.47703 -0.88086,-61.58204 0.465,-15.37379 0.14264,-33.00119 -0.0684,-48.49804 v -0.002 c 0.202,-7.26086 0.18644,-49.602015 -1.48046,-54.193345 -1.07399,-2.95695 -3.98674,-5.99677 -6.92969,-7.13282 -4.958938,-1.91397 -12.897188,-0.93371 -18.242188,-0.92968 l -40.148437,0.0684 c -6.222065,0.028 -22.254916,0.95662 -27.091797,-1.49218 -3.586637,-4.24393 -2.326187,-21.91736 -2.36914,-28.51563 10.987741,-0.39699 23.667471,-0.11191 34.785156,-0.1289 l 66.332026,-0.0996 c 2.78,-0.0165 7.65372,-0.21491 12.3711,-0.19141 z m 131.77929,0.54883 c 8.82,1.251 17.81679,4.77095 25.67579,8.87695 35.47499,20.021 47.13346,51.25763 45.48046,90.015625 0.083,11.258 -0.38597,22.55309 -2.66796,33.62109 -6.351,30.806 -35.16836,60.4765 -65.94336,67.8125 -25.755,6.14 -58.58193,1.47753 -85.54493,3.14453 -4.618,-0.03 -16.40378,0.87989 -19.92578,-1.91211 -1.022,-1.09 -1.2635,-4.59481 -1.3125,-6.00781 -0.843,-23.957 0.96955,-48.68345 -0.56445,-72.56445 3.525,-0.271 9.1582,0.087 12.4082,-0.70899 6.925,-1.696 2.84581,-11.14053 4.75782,-14.51953 4.2,-2.153 10.15378,-0.64106 14.80078,-0.78906 4.111,-0.131 7.86992,-1.36575 10.16992,-4.96875 6.287,-9.854 -1.34655,-52.509105 3.56445,-56.662105 1.29,-1.091 3.25277,-1.43114 4.88477,-1.61914 5.382,-0.621 11.26726,-0.10438 16.69726,-0.10938 9.182,-0.01 19.00961,-0.71062 28.09961,0.60938 12.474,1.811 21.97588,9.72941 29.29688,19.56641 1.038,3.316 3.88772,7.40365 5.26172,13.09765 2.174,9.016995 1.71139,11.466985 1.65039,20.458985 -0.084,12.561 0.44748,24.03514 -6.10352,35.24414 -17.251,29.516 -39.63792,23.73331 -69.16992,24.32031 -8.921,0.177 -12.51153,-0.64738 -20.89453,1.76562 -2.786,2.705 -5.63153,5.52529 -4.89453,9.73829 2.296,3.82499 11.25606,2.81092 15.53906,2.54492 24.774,-1.539 49.48608,5.04128 71.58008,-9.01172 31.87,-20.272 29.79798,-52.33724 27.08398,-85.490235 -0.383,-4.708 -4.38858,-13.7354 -6.89258,-17.5664 -1.869,-3.396 -3.79879,-5.96169 -6.34179,-8.80469 -11.15,-12.469 -24.65928,-20.19508 -41.61329,-20.45508 -9.321,-0.274 -18.30131,-0.20011 -27.69531,0.0879 -7.174,0.22 -22.8695,-1.34833 -27.8125,4.26367 -4.393,4.987 -3.37875,17.7926 -3.46875,24.4336 -0.152,11.248 0.34282,22.80406 0.13282,34.164055 -4.755,0.279 -9.29788,0.22144 -14.04688,0.0234 -0.681,-15.244995 -2.81641,-13.613125 -17.06641,-14.828125 1.898,-12.727 -1.89718,-71.03747 1.13282,-75.98047 0.622,-1.014 1.18854,-1.42162 2.31054,-1.76562 4.099,-1.258 93.73964,-1.11539 101.43164,-0.0254 z M 158.28875,106.57936 c 0.074,4.361 0.34206,13.90903 -0.33594,17.95703 -3.517,0.67401 -12.87948,0.49129 -17.02148,0.48829 -0.123,-5.765 -0.43299,-12.74868 -0.20899,-18.38868 6.001,-0.144 11.56441,-0.15564 17.56641,-0.0566 z" />
  <defs
     id="defs13" />
  <defs
     id="defs16" />
  <path
     fill="#00F0FC"
     fill-opacity="0.98823529"
     d="m 846.33039,87.720275 c 0.241,-0.049 0.48,-0.112 0.723,-0.148 4.093,-0.59 27.902,-0.394 31.739,0.397 2.321,0.478 4.589,1.425 6.417,2.953 3.808,3.181 5.155,8.377 5.603,13.124995 0.477,5.067 2.004,18.587 -1.317,22.243 -4.551,5.008 -34.209,1.219 -42.059,1.945 -1.545,0.143 -2.663,0.418 -3.668,1.687 -1.233,3.539 -0.505,6.365 0.029,10.057 6.421,2.579 16.919,1.676 24.173,1.565 l 18.091,-0.024 c 2.063,13.992 0.763,13.178 -11.556,12.912 -28.075,-0.643 -48.083,7.242 -44.911,-31.633 1.385,-16.961 -6.592,-30.083995 16.736,-35.078995 z m -2.984,27.527995 c 4.32,0.11 8.514,0.28 12.835,0.017 6.751,-0.028 13.865,0.046 20.582,-0.178 0.056,-12.04 1.532,-16.468995 -12.329,-15.286995 -17.886,1.416995 -20.999,-4.904 -21.088,15.447995 z"
     id="path7"
     style="fill:url(#linearGradient23);fill-opacity:1" />
  <path
     fill="#048CFE"
     d="m 548.13539,88.273275 c 11.081,-0.481 24.448,-0.973 35.209,0.322 11.934,2.414 11.47,16.374995 11.501,24.913995 0.043,12.195 0.855,15.952 -12.365,15.564 -2.979,-0.088 -33.552,-1.272 -34.156,0.219 -6.58,16.25 12.229,12.355 21.412,12.326 3.072,0.009 6.146,-0.082 9.219,-0.129 2.311,-0.036 9.213,-0.73 10.684,1.112 1.424,1.784 1.268,6.923 0.541,8.979 -0.515,1.46 -1.396,2.432 -2.87,2.996 -0.918,0.352 -33.714,0.176 -36.647,-0.055 -2.54,-0.2 -5.613,-0.617 -7.91,-1.74 -3.852,-1.882 -6.281,-4.173 -7.561,-8.218 -2.532,-7.998 -3.476,-41.476 0.354,-48.190995 2.652,-4.65 7.729,-6.681 12.589,-8.099 z m -0.47,27.246995 23.258,0.006 9.463,-0.01 c 1.076,-13.097 0.649,-17.121995 -14.124,-15.536995 -2.367,0.252995 -5.261,0.034 -7.59,0.316995 -12.44,0.735 -12.21,2.905 -11.007,15.224 z"
     id="path8"
     style="fill:url(#linearGradient24);fill-opacity:1" />
  <path
     fill="url(#gradient_2)"
     d="m 748.77939,69.073275 c 11.43,0.544 50.83,-2.563 58.513,3.674 5.329,4.327 8.049,12.139 8.769,18.793 0.685,6.331 0.36,12.938995 0.37,19.302995 0.018,11.248 1.72,25.236 -5.89,34.549 -4.185,5.123 -9.099,7.188 -15.531,7.821 -7.781,0.765 -15.661,0.25 -23.465,0.275 -5.805,0.019 -11.907,0.662 -17.679,0.083 -1.327,-0.133 -3.365,-0.376 -4.325,-1.398 -4.133,-4.396 -2.693,-30.202 -2.684,-37.281 -0.058,-6.604 -0.891,-17.066995 1.317,-23.154995 0.819,-2.262 9.988,-1.649 11.654,-0.46 2.28,5.271 1.205,39.698995 1.538,48.329995 5.453,0.018 33.618,1.299 36.794,-2.48 7.794,-9.274 3.74,-34.973 3.717,-47.134995 -0.003,-1.777 -2.902,-5.261 -4.096,-6.692 -9.991,-2.26 -45.076,1.074 -49.761,-2.027 -1.898,-2.878 -1.729,-9.616 0.759,-12.2 z"
     id="path9"
     style="fill:url(#linearGradient25);fill-opacity:1" />
  <path
     fill="#02CDFD"
     d="m 714.07239,87.340275 c 6.195,0.374 13.501,-1.009 19.168,1.075 3.121,1.148 2.372,9.531 0.948,11.492 -7.646,2.381995 -27.08,0.321995 -36.198,1.132995 -9.38,0.835 -5.11,13.031 -3.986,13.294 15.676,3.664 39.372,-8.057 41.363,16.69 2.163,26.873 -18.352,23.12 -37.647,23.24 -6.837,0.071 -14.034,0.313 -20.813,-0.278 -0.105,-3.209 -0.722,-8.788 0.918,-11.442 3.473,-1.899 23.657,-0.775 29.137,-0.912 12.468,-0.314 16.299,1.978 13.538,-13.864 -16.268,-2.174 -39.972,6.782 -42.282,-16.222 -2.866,-28.535995 15.773,-23.611995 35.854,-24.205995 z"
     id="path12"
     style="fill:url(#linearGradient26);fill-opacity:1" />
  <path
     fill="url(#gradient_4)"
     d="m 440.10039,67.350275 c 3.838,-0.138 6.409,-0.181 10.221,0.075 0.052,4.283 1.171,8.929 -0.384,12.811 -2.384,1.134 -21.771,0.629 -26.7,0.902 0.512,15.509 0.369,31.682995 0.24,47.201995 -0.043,5.235 0.46,21.022 -0.773,24.948 -2.59,1.537 -9.396,1.156 -12.726,1.15 -0.691,-5.066 -0.452,-11.067 -0.41,-16.247 0.112,-17.273 1.013,-40.359995 0.311,-57.008995 -7.539,-1.077 -18.749,-0.071 -26.948,-0.524 -0.101,-3.285 -0.583,-8.905 0.699,-11.781 3.353,-1.69 49.164,-1.509 56.47,-1.527 z"
     id="path13"
     style="fill:url(#linearGradient27);fill-opacity:1" />
  <path
     id="path14"
     d="m 467.81219,66.610615 c -1.10619,0.037 -2.143,0.13585 -2.9375,0.1836 -2.491,0.469 -2.28444,0.0386 -3.89844,1.47461 -1.037,4.045 -0.39742,28.51934 -0.10742,33.777335 14.23,-0.241 32.19439,-1.09869 46.27539,-0.30469 l 0.1289,0.94532 c 1.693,12.777 -0.64676,36.44228 0.99024,50.11328 0.286,0.338 0.57237,0.67567 0.85937,1.01367 1.964,0.767 4.23771,0.73806 6.34571,0.53906 1.866,-0.032 3.70331,0.13702 5.32031,-0.70898 1.281,-1.909 0.59994,-19.12988 0.71094,-22.79688 1.471,-48.251995 -2.76913,-43.666535 -46.57813,-43.310545 -0.311,-5.83199 0.12349,-10.82654 0.14649,-16.56054 0.0165,-4.03425 -3.9373,-4.47633 -7.25586,-4.36524 z m 0.45117,43.281245 c -2.57888,-0.0156 -5.28394,0.22188 -6.71094,0.29688 -2.538,7.557 -0.79276,34.21689 -0.50976,43.21289 0.054,1.684 11.12992,1.00912 12.66992,0.95312 2.067,-4.038 1.8189,-37.42814 0.5039,-43.24414 -0.9215,-0.9345 -3.37425,-1.20312 -5.95312,-1.21875 z"
     style="fill:url(#linearGradient28);fill-opacity:1" />
  <path
     fill="#00F0FC"
     fill-opacity="0.98823529"
     d="m 894.79439,87.660275 c 3.644,-0.127 9.301,-0.568 12.697,0.239 4.405,3.757 15.569,44.110995 20.576,53.954995 2.111,-7.023 15.017,-49.378995 18.292,-52.864995 2.906,-1.281 9.943,-1.735 11.952,1.21 0.094,1.498 -2.016,6.789 -2.608,8.933 -5.864,16.483995 -10.428,33.331995 -16.807,49.594995 -3.363,8.571 -15.01,6.651 -21.384,3.321 -1.547,-2.652 -2.909,-7.509 -3.927,-10.535 -5.821,-17.302 -12.154,-34.402 -18.969,-51.332995 -0.496,-1.234 -0.211,-1.347 0.178,-2.52 z"
     id="path15"
     style="fill:url(#linearGradient29);fill-opacity:1" />
  <path
     id="path16"
     d="m 659.29461,86.997335 c -2.17325,0.0129 -4.41211,0.24453 -6.03711,0.33203 -0.702,0.744 -1.19219,1.03188 -1.24219,2.17188 -0.526,12.037995 0.0896,24.169745 0.26758,36.218745 0.032,2.181 -0.0582,5.84072 1.00781,7.63672 2.638,0.672 8.20646,0.29879 11.18946,0.21679 1.892,-1.764 1.93404,-3.56292 1.87304,-6.16992 -0.147,-6.321 0.65585,-35.420825 -1.41015,-39.423825 -1.366,-0.788 -3.47519,-0.99529 -5.64844,-0.98242 z m -46.19922,0.0879 c -1.966,0.005 -3.98022,0.11463 -5.57422,0.0781 -0.597,0.303 -1.91264,0.68728 -1.93164,1.36328 -0.473,16.625995 -0.63828,33.401055 0.38672,50.039055 1.162,18.862 17.86586,16.02608 31.63086,16.08008 9.56,0.038 19.24273,-0.278 28.80273,-0.125 2.006,-2.827 2.20408,-10.43164 -0.16992,-12.80664 -6.581,-2.399 -43.09891,2.79889 -45.62891,-2.16211 -2.728,-5.349 0.39244,-47.866245 -2.22656,-51.906245 -1.405,-0.4645 -3.32306,-0.5653 -5.28906,-0.56055 z"
     style="fill:url(#linearGradient30);fill-opacity:1" />
</svg>
